<?xml version="1.0" encoding="UTF-8" standalone="no"?>
<svg width="600" height="300" viewBox="0 0 600 300" xmlns="http://www.w3.org/2000/svg">
  <rect width="600" height="300" fill="#f5f5f5" rx="10" ry="10"/>
  
  <!-- Title -->
  <text x="300" y="40" font-family="Arial" font-size="20" font-weight="bold" text-anchor="middle" fill="#333">Self-Improvement Workflow</text>
  
  <!-- Steps -->
  <rect x="50" y="100" width="100" height="60" fill="#3498db" rx="5" ry="5"/>
  <text x="100" y="135" font-family="Arial" font-size="14" font-weight="bold" text-anchor="middle" fill="white">Analyze</text>
  
  <rect x="200" y="100" width="100" height="60" fill="#3498db" rx="5" ry="5"/>
  <text x="250" y="135" font-family="Arial" font-size="14" font-weight="bold" text-anchor="middle" fill="white">Propose</text>
  
  <rect x="350" y="100" width="100" height="60" fill="#3498db" rx="5" ry="5"/>
  <text x="400" y="135" font-family="Arial" font-size="14" font-weight="bold" text-anchor="middle" fill="white">Apply</text>
  
  <rect x="500" y="100" width="100" height="60" fill="#3498db" rx="5" ry="5"/>
  <text x="550" y="135" font-family="Arial" font-size="14" font-weight="bold" text-anchor="middle" fill="white">Learn</text>
  
  <!-- Arrows -->
  <path d="M150 130 L200 130" stroke="#333" stroke-width="2" fill="none"/>
  <polygon points="195,125 200,130 195,135" fill="#333"/>
  
  <path d="M300 130 L350 130" stroke="#333" stroke-width="2" fill="none"/>
  <polygon points="345,125 350,130 345,135" fill="#333"/>
  
  <path d="M450 130 L500 130" stroke="#333" stroke-width="2" fill="none"/>
  <polygon points="495,125 500,130 495,135" fill="#333"/>
  
  <path d="M550 160 L550 200 L100 200 L100 160" stroke="#333" stroke-width="2" fill="none"/>
  <polygon points="105,165 100,160 95,165" fill="#333"/>
  
  <!-- Descriptions -->
  <text x="100" y="230" font-family="Arial" font-size="12" text-anchor="middle" fill="#333">Code Analysis</text>
  <text x="250" y="230" font-family="Arial" font-size="12" text-anchor="middle" fill="#333">Improvement Proposals</text>
  <text x="400" y="230" font-family="Arial" font-size="12" text-anchor="middle" fill="#333">Code Transformation</text>
  <text x="550" y="230" font-family="Arial" font-size="12" text-anchor="middle" fill="#333">Feedback Loop</text>
</svg>
