<?xml version="1.0" encoding="UTF-8" standalone="no"?>
<svg width="600" height="400" viewBox="0 0 600 400" xmlns="http://www.w3.org/2000/svg">
  <rect width="600" height="400" fill="#f5f5f5" rx="10" ry="10"/>
  
  <!-- Title -->
  <text x="300" y="40" font-family="Arial" font-size="24" font-weight="bold" text-anchor="middle" fill="#333">TARS Architecture</text>
  
  <!-- Core Engine -->
  <rect x="250" y="80" width="100" height="60" fill="#3498db" rx="5" ry="5"/>
  <text x="300" y="115" font-family="Arial" font-size="14" font-weight="bold" text-anchor="middle" fill="white">Core Engine</text>
  
  <!-- Components -->
  <rect x="100" y="180" width="120" height="50" fill="#2ecc71" rx="5" ry="5"/>
  <text x="160" y="210" font-family="Arial" font-size="14" font-weight="bold" text-anchor="middle" fill="white">Self-Improvement</text>
  
  <rect x="240" y="180" width="120" height="50" fill="#2ecc71" rx="5" ry="5"/>
  <text x="300" y="210" font-family="Arial" font-size="14" font-weight="bold" text-anchor="middle" fill="white">MCP</text>
  
  <rect x="380" y="180" width="120" height="50" fill="#2ecc71" rx="5" ry="5"/>
  <text x="440" y="210" font-family="Arial" font-size="14" font-weight="bold" text-anchor="middle" fill="white">Agent System</text>
  
  <!-- Interfaces -->
  <rect x="170" y="280" width="120" height="50" fill="#e74c3c" rx="5" ry="5"/>
  <text x="230" y="310" font-family="Arial" font-size="14" font-weight="bold" text-anchor="middle" fill="white">CLI</text>
  
  <rect x="310" y="280" width="120" height="50" fill="#e74c3c" rx="5" ry="5"/>
  <text x="370" y="310" font-family="Arial" font-size="14" font-weight="bold" text-anchor="middle" fill="white">Web UI</text>
  
  <!-- Connections -->
  <line x1="300" y1="140" x2="160" y2="180" stroke="#333" stroke-width="2"/>
  <line x1="300" y1="140" x2="300" y2="180" stroke="#333" stroke-width="2"/>
  <line x1="300" y1="140" x2="440" y2="180" stroke="#333" stroke-width="2"/>
  
  <line x1="160" y1="230" x2="230" y2="280" stroke="#333" stroke-width="2"/>
  <line x1="300" y1="230" x2="230" y2="280" stroke="#333" stroke-width="2"/>
  <line x1="300" y1="230" x2="370" y2="280" stroke="#333" stroke-width="2"/>
  <line x1="440" y1="230" x2="370" y2="280" stroke="#333" stroke-width="2"/>
</svg>
